<?xml version="1.0" standalone="no"?>
<!DOCTYPE svg PUBLIC "-//W3C//DTD SVG 20010904//EN"
 "http://www.w3.org/TR/2001/REC-SVG-20010904/DTD/svg10.dtd">
<svg version="1.0" xmlns="http://www.w3.org/2000/svg"
 width="1392.000000pt" height="752.000000pt" viewBox="0 0 1392.000000 752.000000"
 preserveAspectRatio="xMidYMid meet">

<g transform="translate(0.000000,752.000000) scale(0.100000,-0.100000)"
fill="#000000" stroke="none">
<path d="M5054 6809 c-78 -9 -238 -57 -321 -96 -87 -41 -117 -121 -90 -235 12
-47 12 -67 1 -119 -51 -247 -57 -514 -15 -671 13 -51 24 -144 33 -270 19 -296
17 -363 -15 -533 -47 -245 -56 -339 -57 -545 0 -190 -1 -196 -24 -231 -18 -26
-42 -43 -93 -64 -115 -48 -211 -133 -247 -220 -7 -16 -22 -91 -34 -165 -51
-324 -55 -470 -14 -527 20 -29 22 -42 22 -168 l0 -138 -35 -38 c-47 -52 -69
-131 -62 -223 6 -82 39 -172 173 -466 70 -153 96 -201 131 -235 45 -46 124
-88 183 -99 29 -5 41 -16 67 -59 17 -29 50 -73 72 -99 39 -44 41 -49 41 -112
0 -87 20 -126 109 -208 78 -73 391 -316 460 -358 26 -16 73 -37 106 -49 53
-17 70 -18 137 -10 l76 11 178 -96 c146 -78 190 -106 237 -154 32 -33 85 -74
119 -92 60 -32 67 -33 262 -47 147 -11 306 -13 591 -9 410 6 455 10 545 56 44
22 118 91 146 134 12 19 44 41 89 61 161 74 231 109 270 133 39 25 41 25 123
13 151 -22 173 -10 567 291 243 186 264 212 274 337 6 64 9 69 86 173 75 100
84 108 145 134 75 32 137 73 165 110 25 32 161 286 224 419 62 128 101 237
101 279 0 43 -24 112 -56 157 -23 34 -24 40 -14 80 7 24 16 81 20 126 6 73 11
86 40 120 62 71 74 111 78 278 6 217 -20 473 -54 543 -26 53 -110 134 -173
167 -38 19 -81 71 -81 98 -1 48 -31 164 -60 225 -23 50 -53 88 -123 157 -127
125 -577 622 -577 637 0 4 28 21 63 37 183 89 277 231 277 420 0 135 -44 244
-135 335 -51 52 -155 107 -236 125 -60 14 -189 13 -279 -3 -290 -51 -281 -50
-338 -38 -37 8 -90 33 -156 74 -104 63 -196 115 -397 223 -63 34 -144 83 -179
109 -73 53 -177 95 -317 130 -109 27 -196 38 -488 62 -211 17 -301 15 -447
-12 -81 -15 -90 -15 -113 0 -53 35 -135 58 -306 86 -98 17 -207 37 -241 45
-69 16 -310 19 -434 4z m271 -59 c39 -5 102 -22 140 -38 39 -17 99 -33 135
-37 100 -11 249 -41 316 -64 64 -21 257 -126 359 -195 33 -22 130 -108 215
-191 85 -83 169 -160 185 -172 46 -32 126 -75 131 -70 2 2 -18 23 -45 45 -28
23 -62 60 -78 81 -77 107 -145 191 -170 209 l-28 20 18 36 c27 58 24 62 -60
81 -93 20 -238 93 -221 110 3 3 46 10 94 15 312 33 770 -27 967 -126 26 -14
116 -69 200 -123 83 -54 188 -117 232 -141 76 -41 186 -111 284 -179 42 -30
48 -31 145 -31 56 0 156 9 226 21 71 12 175 21 240 22 106 1 120 -1 177 -27
66 -30 137 -96 168 -155 26 -52 46 -166 39 -224 -15 -113 -108 -233 -219 -282
-114 -51 -300 -71 -414 -44 -24 5 -46 8 -48 5 -3 -2 15 -38 40 -80 43 -74 45
-75 59 -55 13 20 24 22 124 24 l109 3 43 -57 c24 -31 81 -96 126 -146 106
-115 206 -235 206 -246 0 -17 -13 -9 -81 52 -38 34 -69 57 -69 52 0 -6 17 -36
38 -69 159 -248 225 -408 267 -648 16 -94 20 -350 6 -421 l-7 -40 -26 80 c-15
44 -47 127 -73 185 -57 128 -69 171 -91 325 -19 132 -53 230 -131 375 -50 93
-122 204 -129 198 -2 -3 8 -28 22 -57 79 -164 126 -310 189 -586 21 -92 45
-302 45 -393 0 -54 3 -73 13 -70 16 6 46 94 47 140 0 59 14 52 43 -23 37 -95
55 -167 63 -254 7 -76 -3 -225 -15 -225 -3 0 -12 30 -19 66 -17 91 -23 96 -39
33 -15 -59 -69 -156 -94 -169 -13 -8 -17 8 -27 118 -7 69 -16 130 -21 135 -4
4 -22 -47 -40 -115 -71 -280 -168 -553 -301 -852 -23 -50 -27 -40 -33 84 -5
102 -36 276 -46 263 -11 -13 -68 -268 -95 -425 -35 -199 -95 -388 -125 -388
-4 0 -11 76 -14 169 -5 169 -18 240 -32 176 -13 -64 -120 -313 -130 -303 -2 1
-15 62 -30 133 -28 135 -76 278 -128 380 l-31 60 -21 -171 c-12 -94 -27 -200
-34 -235 -6 -35 -18 -113 -26 -174 -9 -60 -23 -135 -31 -165 -21 -72 -61 -150
-67 -130 -3 8 -14 42 -26 75 -11 33 -40 96 -65 140 -25 44 -46 84 -46 90 0 16
-63 143 -96 196 -37 58 -156 209 -165 209 -4 0 6 -33 22 -74 16 -42 32 -106
35 -147 l7 -72 -54 29 c-59 32 -97 77 -273 324 -101 142 -250 320 -267 320 -5
0 -4 -12 2 -27 30 -79 129 -396 125 -400 -8 -9 -166 139 -220 205 -29 37 -75
103 -101 147 -26 44 -70 113 -96 154 -27 41 -49 75 -49 76 0 2 39 9 88 15 115
17 123 22 78 48 -20 12 -36 26 -36 32 0 6 17 18 38 27 54 23 249 71 321 79 34
3 63 10 66 14 13 21 -278 58 -360 45 -35 -5 -38 -4 -25 9 38 37 310 116 398
116 17 0 33 4 37 9 8 15 -119 24 -235 18 -181 -9 -347 -61 -587 -184 -92 -47
-191 -101 -220 -119 -29 -18 -76 -45 -105 -60 -56 -29 -169 -66 -176 -59 -6 5
109 114 121 115 4 0 7 4 7 9 0 5 -23 7 -52 4 -30 -3 -73 0 -98 7 -63 18 -410
20 -410 3 0 -17 0 -17 -56 14 -49 27 -161 130 -152 139 3 2 34 -9 70 -26 281
-132 610 -35 817 241 75 99 123 185 177 315 114 276 151 498 125 746 -25 224
-63 361 -155 548 -146 297 -324 535 -455 610 -33 19 -61 38 -61 41 0 4 11 10
25 13 35 9 31 27 -15 75 -46 47 -47 54 -19 82 11 11 18 26 16 33 -3 7 -36 18
-74 25 -99 17 -102 21 -65 69 18 22 32 45 32 50 0 6 -16 16 -35 22 -19 6 -35
17 -35 24 0 6 18 30 40 51 22 21 40 42 40 46 0 4 -16 5 -36 2 -30 -5 -40 -2
-53 15 l-16 22 -64 -26 c-110 -45 -186 -21 -255 79 -52 74 -40 85 14 13 50
-66 113 -101 166 -93 42 7 216 89 261 123 29 22 31 27 22 51 -20 54 -148 183
-181 183 -15 0 -9 -75 11 -133 15 -42 17 -58 8 -65 -11 -9 -82 -32 -98 -32 -4
0 -12 30 -19 68 -13 77 -38 139 -67 165 -18 15 -30 16 -124 7 -137 -14 -265
-38 -303 -57 l-31 -15 20 21 c34 35 265 86 405 89 25 1 77 -3 115 -8z m-435
-359 c-12 -44 -50 -81 -86 -81 -32 0 -38 -15 -20 -50 9 -17 23 -43 31 -59 13
-24 14 -34 4 -50 -10 -15 -10 -28 1 -60 12 -36 11 -43 -2 -54 -13 -10 -15 -22
-8 -62 8 -55 4 -73 -21 -95 -10 -8 -29 -32 -42 -52 -24 -37 -25 -37 -31 -14
-12 50 -7 273 8 366 25 145 22 138 66 150 42 11 77 47 87 89 8 37 17 49 21 29
2 -9 -2 -35 -8 -57z m237 -277 c19 -113 20 -149 3 -149 -17 0 -26 38 -36 149
-6 65 -4 78 7 74 8 -3 19 -32 26 -74z m-83 24 c3 -18 8 -68 12 -110 6 -66 4
-78 -8 -78 -17 0 -23 27 -34 148 -6 61 -5 72 8 72 10 0 18 -12 22 -32z m175
-393 l34 -24 20 26 c17 21 26 24 59 20 22 -3 42 -8 45 -11 10 -10 -19 -66 -45
-86 -32 -26 -57 -25 -76 2 l-16 22 -30 -29 c-30 -28 -32 -29 -58 -15 -25 14
-28 14 -46 -3 -13 -13 -26 -17 -46 -13 -20 4 -30 1 -34 -11 -6 -15 -40 -15
-76 1 -13 5 -15 -12 -12 -134 4 -163 1 -184 -27 -149 -49 64 -119 266 -104
305 7 20 56 44 88 44 14 0 34 9 45 20 23 23 50 26 68 8 9 -9 17 -7 34 8 26 22
49 24 70 6 13 -10 18 -8 32 13 21 31 33 31 75 0z m313 -6 c37 -19 40 -23 35
-52 -3 -18 -13 -75 -22 -127 -20 -120 -33 -160 -50 -160 -30 0 -74 227 -61
313 6 41 10 47 32 47 14 0 43 -9 66 -21z m-692 -425 c83 -131 206 -383 248
-509 68 -205 100 -412 109 -717 3 -115 3 -208 -1 -208 -11 0 -66 126 -66 150
0 26 -13 25 -47 -4 -24 -21 -28 -32 -31 -96 -3 -40 1 -107 8 -149 16 -98 14
-141 -10 -246 -20 -80 -20 -88 -5 -132 28 -81 77 -163 121 -201 60 -53 195
-127 281 -154 55 -17 73 -27 73 -40 0 -27 100 -216 150 -284 100 -135 244
-261 399 -347 46 -26 85 -47 86 -47 2 0 1 9 -2 20 -3 11 -9 20 -13 20 -14 0
-64 105 -91 192 -27 87 -24 106 7 45 18 -35 125 -160 189 -220 64 -61 122 -98
209 -133 70 -29 91 -44 154 -109 39 -42 72 -80 72 -85 0 -12 -184 75 -237 111
-23 16 -44 29 -47 29 -9 0 7 -33 41 -85 35 -54 87 -174 79 -182 -16 -16 -291
214 -388 325 -27 31 -38 38 -38 25 0 -39 41 -175 68 -230 18 -36 27 -65 23
-77 -6 -15 -18 -7 -85 55 -87 82 -155 168 -194 244 -14 27 -27 45 -29 38 -6
-17 54 -239 78 -284 28 -57 24 -63 -23 -30 -105 73 -318 324 -434 511 l-34 55
0 -70 c0 -72 14 -188 27 -221 12 -33 -23 2 -89 90 -77 103 -100 153 -138 301
-16 66 -43 152 -59 190 -16 39 -34 95 -42 125 -11 48 -14 52 -20 30 -4 -14 -7
-44 -8 -66 -3 -110 -29 -135 -62 -58 -20 44 -45 224 -35 250 3 7 1 16 -3 19
-11 6 -51 -122 -51 -163 0 -17 -4 -33 -9 -36 -21 -13 -47 182 -57 434 -6 126
5 236 32 340 4 19 -9 9 -54 -40 l-59 -65 -7 75 c-3 41 -11 178 -16 304 -6 127
-12 231 -13 232 -2 2 -13 -37 -26 -86 -13 -50 -27 -90 -31 -90 -21 0 -27 312
-9 525 6 72 22 200 37 285 27 162 35 353 19 474 -4 33 -5 57 -2 54 4 -3 28
-41 55 -84z m4443 -822 c37 -30 67 -56 67 -59 0 -5 -14 3 -72 45 -27 19 -48
31 -48 26 0 -4 -9 3 -20 16 -22 26 -27 45 -7 34 6 -4 42 -32 80 -62z m-3404
-494 c36 -82 46 -156 34 -239 -7 -41 -19 -79 -30 -91 -26 -29 -108 -68 -167
-79 -28 -6 -73 -15 -101 -20 -27 -5 -71 -11 -96 -13 -25 -1 -51 -6 -57 -10 -6
-4 -21 -2 -32 4 -12 6 -27 7 -37 2 -30 -15 -180 2 -202 22 -39 36 -106 273
-99 352 l3 39 27 -56 c14 -31 42 -82 62 -113 19 -30 49 -82 66 -115 34 -69 42
-76 69 -59 16 10 25 9 44 -1 20 -11 28 -11 45 0 17 10 26 10 48 0 23 -10 29
-10 36 3 11 19 41 21 67 5 15 -10 22 -8 40 10 24 24 34 25 61 11 15 -8 27 -1
69 43 47 48 51 50 51 27 0 -14 5 -32 10 -40 7 -11 10 -1 10 35 0 28 9 99 20
159 11 60 20 124 20 143 0 47 13 41 39 -19z m3688 16 c71 -31 120 -77 133
-124 27 -106 58 -506 45 -586 -8 -45 -10 -36 -21 89 -13 140 -57 427 -75 483
-12 40 -43 68 -110 103 -52 27 -77 61 -45 61 8 0 41 -11 73 -26z m-5007 -54
c0 -5 -10 -12 -22 -14 -74 -16 -131 -26 -141 -26 -20 1 55 31 98 40 57 11 65
11 65 0z m-48 -155 c-33 -29 -43 -46 -52 -88 -12 -59 -70 -358 -70 -363 0 -2
-4 -4 -8 -4 -9 0 -7 27 19 225 28 213 39 238 111 255 18 4 35 8 37 9 3 1 -14
-15 -37 -34z m4930 -394 c26 -16 51 -38 56 -48 27 -53 20 -163 -20 -333 -25
-108 -77 -272 -90 -285 -11 -11 -8 2 29 140 38 143 73 325 73 383 0 62 -19 85
-106 128 -30 15 -54 30 -54 35 0 20 68 8 112 -20z m-4817 -58 c-3 -38 -8 -91
-10 -119 -3 -28 2 -151 10 -275 8 -123 14 -258 14 -299 -1 -70 -2 -72 -9 -30
-11 61 -30 345 -37 573 l-6 189 -30 -6 c-17 -3 -45 -18 -64 -32 -33 -25 -45
-15 -20 16 26 34 62 50 110 50 l48 0 -6 -67z m238 -429 c44 -23 51 -32 103
-137 63 -125 208 -441 231 -501 15 -41 10 -114 -11 -151 -9 -17 -12 -7 -16 56
-5 67 -12 88 -67 195 -33 65 -86 178 -117 249 -119 272 -101 248 -226 296 -25
9 -46 24 -48 33 -3 14 2 14 50 0 29 -9 74 -27 101 -40z m4257 47 c0 -5 -23
-23 -50 -40 -50 -31 -65 -51 -125 -160 -35 -64 -51 -73 -65 -36 -8 21 -5 36
19 83 39 76 62 99 135 133 64 30 86 35 86 20z m514 -221 c15 -28 30 -73 33
-103 6 -66 -7 -102 -132 -352 -87 -173 -94 -186 -89 -140 3 28 34 120 69 205
106 261 114 317 62 419 -14 25 -27 57 -31 71 -6 22 -3 21 27 -12 18 -20 46
-60 61 -88z m-579 -36 c-46 -113 -195 -409 -195 -387 0 45 193 443 207 429 2
-2 -4 -20 -12 -42z m75 -163 c5 -11 22 -28 37 -39 24 -16 37 -18 83 -12 30 4
58 6 62 4 9 -6 -10 -51 -62 -148 l-43 -78 -49 49 c-47 47 -50 48 -108 48 -33
-1 -60 0 -60 1 0 1 18 35 41 76 73 130 79 136 99 99z m-4342 -106 l40 -80 -42
-5 c-46 -6 -95 -36 -120 -75 -15 -23 -20 -24 -33 -13 -15 12 -103 191 -103
209 0 5 20 6 45 2 52 -7 93 8 125 44 28 32 35 25 88 -82z m172 -360 c42 -56
124 -156 183 -223 59 -67 107 -125 107 -130 -1 -20 -250 256 -293 325 -14 23
-31 44 -37 48 -15 9 -59 80 -70 113 l-10 27 23 -29 c12 -16 56 -75 97 -131z
m4007 108 c-33 -53 -299 -360 -337 -390 -33 -26 -20 0 29 54 29 32 113 131
188 220 133 159 169 194 120 116z m-331 -175 c19 -7 34 -15 34 -19 0 -17 -41
-19 -72 -2 -18 9 -37 16 -43 14 -5 -1 -34 -7 -64 -12 -62 -10 -88 -27 -226
-145 -55 -47 -134 -110 -175 -139 -85 -59 -258 -165 -271 -165 -32 0 29 72
122 144 36 28 122 94 190 147 149 115 224 166 276 185 44 17 174 12 229 -8z
m-3171 -16 c53 -30 415 -317 501 -399 65 -60 80 -113 69 -239 -7 -89 -13 -97
-54 -65 -21 16 -22 20 -11 42 15 27 19 130 8 171 -5 17 -29 40 -68 66 -33 21
-82 59 -108 83 -26 24 -78 71 -117 104 -38 33 -100 88 -138 122 -37 35 -86 75
-108 90 l-41 27 -64 -17 c-35 -9 -75 -24 -89 -33 -25 -16 -25 -17 -8 -37 20
-23 2 -16 -29 11 -28 23 -22 37 28 61 99 50 157 53 229 13z m-165 -112 c0 -5
-6 -10 -14 -10 -8 0 -18 5 -21 10 -3 6 3 10 14 10 12 0 21 -4 21 -10z m3663
-322 c1 -90 -1 -99 -27 -137 -16 -23 -30 -41 -31 -41 -1 0 -10 24 -19 54 -16
51 -16 59 -1 118 9 35 25 83 37 107 21 43 22 43 31 20 5 -13 9 -68 10 -121z
m-574 59 c9 -27 24 -39 75 -65 35 -18 69 -32 74 -32 5 0 16 -7 23 -16 12 -15
10 -19 -11 -33 -13 -9 -67 -49 -118 -89 -52 -40 -95 -72 -96 -70 -1 2 -10 28
-20 58 -20 59 -45 87 -85 96 -46 10 -53 14 -49 28 3 13 175 154 190 155 3 1
11 -14 17 -32z m-2880 -35 c31 -26 73 -61 93 -76 39 -29 41 -46 6 -46 -31 0
-86 -38 -103 -70 -8 -16 -15 -43 -15 -60 0 -16 -4 -30 -9 -30 -11 0 -225 177
-229 189 -2 5 26 19 62 31 79 26 116 53 116 86 0 35 17 30 79 -24z m3291 -63
c0 -16 -61 -68 -235 -199 -163 -123 -281 -200 -305 -200 -8 0 1 11 21 23 50
31 226 166 348 266 145 119 171 136 171 110z m-3671 -75 c142 -114 257 -204
336 -265 78 -60 87 -70 67 -77 -8 -2 -40 21 -194 144 -32 25 -75 57 -95 71
-21 14 -40 29 -43 32 -3 4 -39 34 -80 66 -81 64 -101 85 -93 98 5 9 1 12 102
-69z m1685 -91 l-38 -36 -268 6 -268 6 -42 -32 c-24 -18 -49 -45 -56 -60 -14
-30 -26 -33 -46 -14 -11 10 -9 18 13 49 33 47 87 78 176 99 56 14 119 18 318
18 l249 1 -38 -37z m651 26 c90 -16 225 -94 209 -120 -11 -18 -51 -8 -79 21
-46 48 -83 60 -190 60 -325 0 -526 -40 -584 -117 -26 -35 -27 -14 -2 35 28 54
73 92 133 113 44 15 86 18 254 19 110 0 227 -5 259 -11z m720 3 c-6 -5 -30
-17 -55 -26 -25 -10 -79 -36 -120 -58 -231 -126 -543 -271 -568 -265 -12 3 -4
10 23 22 64 28 596 293 608 303 29 22 135 45 112 24z m-2468 -29 c28 -16 118
-66 200 -113 125 -71 306 -165 403 -208 19 -8 21 -11 7 -11 -40 -2 -222 83
-430 201 -38 21 -70 38 -72 38 -6 0 -137 82 -164 102 -36 28 -3 22 56 -9z
m941 -269 c2 -1 -1 -11 -7 -22 -18 -34 -13 -128 9 -172 l20 -40 -115 0 c-93 0
-115 3 -115 14 0 8 5 18 11 22 14 8 48 83 49 106 0 9 -16 37 -35 63 l-35 46
107 -7 c60 -4 109 -8 111 -10z m672 8 c0 -5 -14 -18 -31 -31 -61 -45 -59 -108
7 -172 l35 -34 -123 -5 c-68 -3 -126 -4 -129 -3 -4 2 5 24 18 50 20 39 24 58
20 103 -3 30 -8 63 -12 72 -6 16 4 18 97 21 56 1 106 4 111 5 4 1 7 -2 7 -6z
m127 -329 c-3 -2 -34 -12 -68 -20 -52 -14 -124 -17 -394 -17 -181 0 -375 4
-430 9 -85 8 -31 11 345 17 245 4 465 11 490 16 42 8 67 6 57 -5z"/>
<path d="M6725 6323 c-38 -9 -115 -46 -115 -54 0 -5 36 -27 79 -48 69 -35 96
-42 210 -57 149 -20 172 -14 124 30 -47 45 -156 113 -198 125 -41 11 -66 12
-100 4z m133 -83 c40 -24 41 -40 3 -40 -45 0 -61 10 -61 36 0 29 15 30 58 4z
m-88 -16 c0 -8 -4 -12 -10 -9 -5 3 -10 10 -10 16 0 5 5 9 10 9 6 0 10 -7 10
-16z"/>
<path d="M6490 6057 c0 -11 36 -142 60 -217 36 -111 111 -250 169 -312 29 -32
55 -57 57 -55 2 1 -16 41 -41 87 -24 47 -62 131 -84 188 -54 135 -160 338
-161 309z"/>
<path d="M8605 5816 c-76 -24 -255 -126 -255 -146 0 -23 73 -34 251 -40 9 0
20 -11 23 -24 5 -19 11 -22 31 -18 29 5 29 5 10 -42 -14 -33 -14 -36 2 -36 33
0 119 47 137 75 10 16 15 36 12 49 -6 25 -80 70 -136 81 l-34 7 26 22 c15 11
38 29 52 39 14 10 26 24 26 32 0 19 -87 19 -145 1z"/>
<path d="M6480 4474 c0 -219 -11 -395 -35 -539 -3 -16 -2 -23 2 -15 3 8 17 38
30 65 14 28 38 84 55 125 30 74 30 76 25 215 -4 104 -13 171 -34 262 -16 67
-32 125 -36 129 -4 4 -7 -105 -7 -242z"/>
<path d="M8633 4465 c-2 -107 -40 -265 -64 -265 -5 0 -9 17 -9 38 0 76 -43
282 -59 282 -3 0 -6 -66 -7 -148 -1 -188 -13 -240 -109 -481 -42 -106 -75
-195 -72 -197 4 -5 95 94 134 146 36 47 131 215 164 290 l34 74 14 -37 c20
-53 32 -46 26 16 -2 28 -7 99 -10 156 -5 97 -20 187 -34 203 -3 4 -7 -31 -8
-77z"/>
<path d="M7570 3238 c0 -4 55 -156 65 -180 11 -27 -40 -23 -121 7 -37 14 -69
24 -70 22 -6 -6 86 -71 211 -151 66 -42 121 -72 123 -66 5 14 -26 105 -54 161
-30 60 -154 227 -154 207z"/>
</g>
</svg>
